# xmcd CD database file
#
# Track frame offsets:
#	150
#	35473
#	66619
#	92877
#	134604
#	161866
#	195502
#	207601
#	217178
#
# Disc length: 3335 seconds
#
# Revision: 1
# Processed by: cddbd v1.5.1PL2 Copyright (c) Steve Scherf et al.
# Submitted via: CDex 1.50
#
DISCID=970d0509
DTITLE=Ted Curson - Traveling On
DYEAR=1996
DGENRE=Jazz
TTITLE0=Lin's Garden
TTITLE1=Quichsand
TTITLE2=Flatted Fifth
TTITLE3=Tears For Dolphy
TTITLE4=Reava's Waltz
TTITLE5=Watermelon Man
TTITLE6=When The Saints Go Marching In
TTITLE7=Flip Flop And Fly
TTITLE8=Song Of The Lonely One (Ode to Booker Ervin)
EXTD=YEAR: 1996
EXTT0=
EXTT1=
EXTT2=
EXTT3=
EXTT4=
EXTT5=
EXTT6=
EXTT7=
EXTT8=
PLAYORDER=
